<?xml version="1.0" encoding="utf-8"?>
<!-- Generator: Adobe Illustrator 25.4.1, SVG Export Plug-In . SVG Version: 6.00 Build 0)  -->
<svg version="1.1" id="Layer_1" xmlns="http://www.w3.org/2000/svg" xmlns:xlink="http://www.w3.org/1999/xlink" x="0px" y="0px"
	 viewBox="0 0 121 25" style="enable-background:new 0 0 121 25;" xml:space="preserve">
<style type="text/css">
	.st0{fill:#4D87E2;}
	.st1{fill:#FFFFFF;}
</style>
<path class="st0" d="M0,20V5c0-0.33,0.03-0.65,0.1-0.98C0.16,3.7,0.25,3.39,0.38,3.09c0.13-0.3,0.28-0.59,0.46-0.86
	C1.03,1.95,1.23,1.7,1.46,1.46C1.7,1.23,1.95,1.03,2.22,0.84s0.56-0.34,0.86-0.46S3.7,0.16,4.02,0.1S4.67,0,5,0h15
	c0.33,0,0.65,0.03,0.98,0.1c0.32,0.06,0.63,0.16,0.94,0.28s0.59,0.28,0.86,0.46c0.27,0.18,0.53,0.39,0.76,0.62
	c0.23,0.23,0.44,0.48,0.62,0.76c0.18,0.27,0.34,0.56,0.46,0.86c0.13,0.3,0.22,0.62,0.28,0.94C24.97,4.35,25,4.67,25,5v15
	c0,0.33-0.03,0.65-0.1,0.98c-0.06,0.32-0.16,0.63-0.28,0.94s-0.28,0.59-0.46,0.86c-0.18,0.27-0.39,0.53-0.62,0.76
	c-0.23,0.23-0.48,0.44-0.76,0.62c-0.27,0.18-0.56,0.34-0.86,0.46c-0.3,0.13-0.62,0.22-0.94,0.28C20.65,24.97,20.33,25,20,25H5
	c-0.33,0-0.65-0.03-0.98-0.1s-0.63-0.16-0.94-0.28s-0.59-0.28-0.86-0.46c-0.27-0.18-0.53-0.39-0.76-0.62
	c-0.23-0.23-0.44-0.48-0.62-0.76c-0.18-0.27-0.34-0.56-0.46-0.86S0.16,21.3,0.1,20.98C0.03,20.65,0,20.33,0,20z"/>
<path class="st1" d="M16.77,10.45c-0.63,0.69-1.71,0.69-2.34,0c-0.54-0.59-0.54-1.51,0-2.1c0.63-0.69,1.71-0.69,2.34,0
	C17.31,8.94,17.31,9.86,16.77,10.45z M18.06,6.89c-1.9-1.86-4.94-1.85-6.83,0.03c-1.53,1.52-1.82,3.8-0.89,5.62
	c0.03,0.07,0.02,0.16-0.03,0.21l-4.75,4.74c-0.03,0.03-0.05,0.08-0.05,0.13v1.7c0,0.1,0.08,0.18,0.18,0.18h1.71
	c0.05,0,0.09-0.02,0.13-0.05l1.44-1.43c0.03-0.03,0.08-0.05,0.13-0.05h1.9c0.2,0,0.37-0.16,0.37-0.37v-1.9
	c0-0.05,0.02-0.09,0.05-0.13l0.87-0.87c0.06-0.06,0.14-0.07,0.21-0.03c1.82,0.91,4.09,0.61,5.6-0.9
	C19.98,11.87,19.97,8.76,18.06,6.89z"/>
<polygon points="35,5.5 46.05,5.5 46.05,19.16 43.58,19.16 43.58,7.63 37.48,7.63 37.48,19.15 35,19.15 "/>
<path d="M51.61,17.52c1.36,0,2.25-1.38,2.25-2.57v-0.27h-0.42c-1.23,0-3.31,0.17-3.31,1.55C50.13,16.88,50.62,17.52,51.61,17.52z
	 M53.41,13h0.42v-0.14c0-1.29-0.83-1.73-1.84-1.73c-0.96,0-1.94,0.41-2.73,0.94l-0.9-1.75c0.8-0.65,2.38-1.21,3.85-1.21
	c2.56,0,4.07,1.43,4.07,3.9v6.13h-2.27v-0.83c0-0.41,0.05-0.71,0.05-0.71h-0.04c-0.6,1.04-1.77,1.77-3.1,1.77
	c-1.77,0-3.23-1.16-3.23-2.94C47.71,13.5,51.24,13,53.41,13z"/>
<path d="M63.06,9.11c1.33,0,2.83,0.44,3.77,1.46l-1.09,1.67c-0.61-0.61-1.58-1.06-2.54-1.06c-1.81,0-2.98,1.36-2.98,3.03
	c0,1.65,1.17,3.08,3.06,3.08c1.04,0,2.15-0.54,2.88-1.25l0.94,1.73c-0.92,0.98-2.47,1.6-4.04,1.6c-3.25,0-5.33-2.28-5.33-5.14
	C57.73,11.46,59.81,9.11,63.06,9.11z"/>
<path d="M72.89,9.11c1.33,0,2.83,0.44,3.77,1.46l-1.09,1.67c-0.61-0.61-1.58-1.06-2.54-1.06c-1.81,0-2.98,1.36-2.98,3.03
	c0,1.65,1.17,3.08,3.06,3.08c1.04,0,2.15-0.54,2.88-1.25l0.94,1.73c-0.92,0.98-2.47,1.6-4.04,1.6c-3.25,0-5.33-2.28-5.33-5.14
	C67.56,11.46,69.64,9.11,72.89,9.11z"/>
<path d="M82.47,17.54c1.09,0,1.62-0.56,1.62-1.31c0-0.79-0.56-1.33-1.62-1.33h-1.79v2.64H82.47z M82.27,13.38
	c0.92,0,1.36-0.54,1.36-1.29c0-0.71-0.44-1.16-1.4-1.16h-1.55v2.44L82.27,13.38L82.27,13.38z M78.23,9.35h4.56
	c1.98,0,3.31,0.89,3.31,2.54c0,0.9-0.46,1.75-1.29,2.15v0.02c1.17,0.31,1.73,1.27,1.73,2.25c0,1.96-1.6,2.84-3.66,2.84h-4.65V9.35z"
	/>
<path d="M92.97,17.3c1.6,0,2.93-1.23,2.93-3.06c0-1.81-1.33-3.06-2.93-3.06c-1.6,0-2.91,1.25-2.91,3.06
	C90.07,16.08,91.37,17.3,92.97,17.3z M92.95,9.11c3,0,5.4,2.13,5.4,5.14c0,3.02-2.4,5.14-5.38,5.14c-2.98,0-5.38-2.11-5.38-5.14
	C87.59,11.24,89.99,9.11,92.95,9.11z"/>
<path d="M104.63,17.32c1.35,0,2.47-1.09,2.47-3.03c0-1.87-1-3.08-2.42-3.08c-1.29,0-2.48,0.92-2.48,3.1
	C102.19,15.82,103.04,17.32,104.63,17.32z M99.83,9.35h2.23v0.73c0,0.36-0.04,0.7-0.04,0.7h0.04c0.63-1.06,1.82-1.65,3.15-1.65
	c2.66,0,4.34,2.1,4.34,5.14c0,3.12-1.91,5.14-4.48,5.14c-1.12,0-2.13-0.5-2.83-1.38h-0.04c0,0,0.05,0.34,0.05,0.85v4.15h-2.44V9.35z
	"/>
<polygon points="110.99,9.35 113.43,9.35 113.43,13.1 114.62,13.1 117,9.35 119.71,9.35 116.6,14.02 116.6,14.05 120.1,19.15 
	117.28,19.15 114.7,15.16 113.43,15.16 113.43,19.15 110.99,19.15 "/>
</svg>
